{"title":"The.Mystery.of.Happiness.2014.Spanish.HDRip.XviD.AC3-N3kr4","uid":11384898,"size":1478069542,"categoryP":"video","categoryS":"movies","magnet":"?xt=urn:btih:9102c1e03f8c7cab07a437eb85a59660c40d5665&amp;dn=The.Mystery.of.Happiness.2014.Spanish.HDRip.XviD.AC3-N3kr4&amp;tr=udp%3A%2F%2Ftracker.openbittorrent.com%3A80&amp;tr=udp%3A%2F%2Fopen.demonii.com%3A1337&amp;tr=udp%3A%2F%2Ftracker.coppersurfer.tk%3A6969&amp;tr=udp%3A%2F%2Fexodus.desync.com%3A6969","seeders":1,"leechers":0,"uploader":"Falcon.G13","files":2,"time":1415246311,"description":"The Mystery of Happiness (2014) \n&quot;El misterio de la felicidad&quot; (original title)\n92 min - Comedy | Drama | Romance - 16 January 2014 (Argentina)\n6.0 Your rating: -/10 Ratings: 6.0/10 from 286 users \nReviews: write review | 9 critic\nSantiago and Eugenio are more than friends, they are life long business partners. They understand each other without words, they care for each other, they need each other. One day Eugenio ...\n &lt;a href=&quot;\nhttp://i.imgur.com/HXiJoMn.jpg&quot; rel=&quot;nofollow&quot; target=&quot;_NEW&quot;&gt;\nhttp://i.imgur.com/HXiJoMn.jpg&lt;/a&gt; &lt;a href=&quot;\nhttp://i.imgur.com/IbxMLTd.jpg&quot; rel=&quot;nofollow&quot; target=&quot;_NEW&quot;&gt;\nhttp://i.imgur.com/IbxMLTd.jpg&lt;/a&gt; &lt;a href=&quot;\nhttp://i.imgur.com/ubomMx9.jpg&quot; rel=&quot;nofollow&quot; target=&quot;_NEW&quot;&gt;\nhttp://i.imgur.com/ubomMx9.jpg&lt;/a&gt; &lt;a href=&quot;\nhttp://i.imgur.com/liV1ACV.jpg&quot; rel=&quot;nofollow&quot; target=&quot;_NEW&quot;&gt;\nhttp://i.imgur.com/liV1ACV.jpg&lt;/a&gt; &lt;a href=&quot;\nhttp://i.imgur.com/bv6JQfs.jpg&quot; rel=&quot;nofollow&quot; target=&quot;_NEW&quot;&gt;\nhttp://i.imgur.com/bv6JQfs.jpg&lt;/a&gt; &lt;a href=&quot;\nhttp://i.imgur.com/JHPbZ3C.jpg&quot; rel=&quot;nofollow&quot; target=&quot;_NEW&quot;&gt;\nhttp://i.imgur.com/JHPbZ3C.jpg&lt;/a&gt;\n\nGeneral\nComplete name : The.Mystery.of.Happiness.2014.Spanish.HDRip.XviD.AC3-N3kr4.avi\nFormat : AVI\nFormat/Info : Audio Video Interleave\nFormat profile : OpenDML\nFile size : 1.38 GiB\nDuration : 1h 39mn\nOverall bit rate : 1 984 Kbps\nWriting application : Lavf55.7.100\n\nVideo\nID : 0\nFormat : MPEG-4 Visual\nFormat profile : Advanced Simple@L1\nFormat settings, BVOP : No\nFormat settings, QPel : No\nFormat settings, GMC : No warppoints\nFormat settings, Matrix : Default (H.263)\nCodec ID : XVID\nCodec ID/Hint : XviD\nDuration : 1h 39mn\nBit rate : 1 331 Kbps\nWidth : 720 pixels\nHeight : 304 pixels\nDisplay aspect ratio : 2.35:1\nFrame rate : 24.000 fps\nColor space : YUV\nChroma subsampling : 4:2:0\nBit depth : 8 bits\nScan type : Progressive\nCompression mode : Lossy\nBits/(Pixel*Frame) : 0.253\nStream size : 946 MiB (67%)\nWriting library : Lavc55.12.100\n\nAudio\nID : 1\nFormat : AC-3\nFormat/Info : Audio Coding 3\nMode extension : CM (complete main)\nFormat settings, Endianness : Big\nCodec ID : 2000\nDuration : 1h 39mn\nBit rate mode : Constant\nBit rate : 640 Kbps\nChannel(s) : 6 channels\nChannel positions : Front: L C R, Side: L R, LFE\nSampling rate : 48.0 KHz\nBit depth : 16 bits\nCompression mode : Lossy\nStream size : 455 MiB (32%)\nAlignment : Aligned on interleaves\nInterleave, duration : 32 ms (0.77 video frame)\nInterleave, preload duration : 32 ms","torrent":{"xt":"urn:btih:9102c1e03f8c7cab07a437eb85a59660c40d5665","amp;dn":"The.Mystery.of.Happiness.2014.Spanish.HDRip.XviD.AC3-N3kr4","amp;tr":["udp%3A%2F%2Ftracker.openbittorrent.com%3A80","udp%3A%2F%2Fopen.demonii.com%3A1337","udp%3A%2F%2Ftracker.coppersurfer.tk%3A6969","udp%3A%2F%2Fexodus.desync.com%3A6969"],"infoHash":"9102c1e03f8c7cab07a437eb85a59660c40d5665","infoHashBuffer":{"type":"Buffer","data":[145,2,193,224,63,140,124,171,7,164,55,235,133,165,150,96,196,13,86,101]},"announce":[],"urlList":[]}}